<svg width="20" height="20" viewBox="0 0 20 20" fill="none" xmlns="http://www.w3.org/2000/svg">
<path d="M18.3826 3.89474H11.17L9.73317 2.19318C9.68575 2.13694 9.61587 2.10461 9.54228 2.10492H3.72742C2.83415 2.10492 2.11002 2.82906 2.11002 3.72233V4.19441H1.61741C0.724959 4.19441 0.0011289 4.91732 0 5.80977V16.2777C0 17.171 0.724138 17.8951 1.61741 17.8951H16.2726C17.1658 17.8951 17.89 17.171 17.89 16.2777V15.8057H18.3826C19.2759 15.8057 20 15.0815 20 14.1883V5.51215C20 4.61888 19.2759 3.89474 18.3826 3.89474ZM17.3892 15.3192V16.288C17.388 16.9054 16.8879 17.4055 16.2705 17.4066H1.61741C1.00005 17.4055 0.499897 16.9054 0.498768 16.288V5.82003C0.499897 5.20267 1.00005 4.70252 1.61741 4.70139H7.33169L8.76847 6.40295C8.81589 6.45919 8.88578 6.49152 8.95936 6.49121H16.2869C16.8947 6.50122 17.3837 6.99383 17.3892 7.60164V15.3192ZM19.4992 14.2006C19.498 14.8179 18.9979 15.3181 18.3805 15.3192H17.8879V7.60164C17.8879 6.70837 17.1638 5.98423 16.2705 5.98423H9.05993L7.62315 4.28267C7.57574 4.22643 7.50585 4.1941 7.43227 4.19441H2.61084V3.72233C2.61197 3.10497 3.11212 2.60482 3.72947 2.60369H9.43555L10.8723 4.30525C10.9197 4.36149 10.9896 4.39382 11.0632 4.39351H18.3908C19.0082 4.39464 19.5083 4.89479 19.5094 5.51215L19.4992 14.2006Z" fill="#C62026"/>
</svg>
