<svg width="30" height="30" viewBox="0 0 30 30" fill="none" xmlns="http://www.w3.org/2000/svg">
<path d="M5.9991 10.9375C5.82578 10.6384 5.44187 10.5359 5.14521 10.7086L4.99996 10.7925V10.625C4.99996 10.2796 4.72041 10 4.37494 10C4.02947 10 3.74992 10.2796 3.74992 10.625V10.7925L3.60466 10.7086C3.30619 10.5359 2.92351 10.6384 2.75078 10.9375C2.57804 11.2366 2.68058 11.6187 2.97964 11.7914L3.12455 11.875L2.97964 11.9586C2.68058 12.1313 2.57804 12.5134 2.75078 12.8125C2.86673 13.0127 3.07673 13.125 3.29277 13.125C3.399 13.125 3.5064 13.0981 3.60466 13.0414L3.74998 12.9575V13.125C3.74998 13.4704 4.02953 13.75 4.375 13.75C4.72047 13.75 5.00002 13.4704 5.00002 13.125V12.9575L5.14527 13.0414C5.24353 13.0981 5.35093 13.125 5.45717 13.125C5.67326 13.125 5.8832 13.0127 5.99916 12.8125C6.17189 12.5134 6.06935 12.1313 5.77029 11.9586L5.62539 11.875L5.77029 11.7914C6.0693 11.6187 6.17183 11.2366 5.9991 10.9375Z" fill="#797979"/>
<path d="M10.9992 10.9375C10.8253 10.6384 10.4426 10.5359 10.1453 10.7086L10.0001 10.7925V10.625C10.0001 10.2796 9.72053 10 9.37506 10C9.02959 10 8.75004 10.2796 8.75004 10.625V10.7925L8.60478 10.7086C8.30508 10.5359 7.92305 10.6384 7.7509 10.9375C7.57816 11.2366 7.6807 11.6187 7.97976 11.7914L8.12467 11.875L7.97976 11.9586C7.6807 12.1313 7.57816 12.5134 7.7509 12.8125C7.86686 13.0127 8.07686 13.125 8.29289 13.125C8.39912 13.125 8.50652 13.0981 8.60478 13.0414L8.75004 12.9575V13.125C8.75004 13.4704 9.02959 13.75 9.37506 13.75C9.72053 13.75 10.0001 13.4704 10.0001 13.125V12.9575L10.1453 13.0414C10.2436 13.0981 10.351 13.125 10.4572 13.125C10.6733 13.125 10.8833 13.0127 10.9992 12.8125C11.172 12.5134 11.0694 12.1313 10.7704 11.9586L10.6254 11.875L10.7704 11.7914C11.0694 11.6187 11.172 11.2366 10.9992 10.9375Z" fill="#797979"/>
<path d="M15.9991 10.9375C15.8258 10.6384 15.443 10.5359 15.1452 10.7086L15 10.7924V10.625C15 10.2795 14.7204 9.99994 14.3749 9.99994C14.0295 9.99994 13.7499 10.2795 13.7499 10.625V10.7924L13.6047 10.7086C13.3056 10.5358 12.9229 10.6384 12.7508 10.9374C12.578 11.2365 12.6806 11.6186 12.9796 11.7913L13.1245 11.8749L12.9796 11.9586C12.6806 12.1313 12.578 12.5134 12.7508 12.8124C12.8667 13.0127 13.0767 13.1249 13.2928 13.1249C13.399 13.1249 13.5064 13.0981 13.6047 13.0413L13.7499 12.9575V13.125C13.7499 13.4704 14.0295 13.75 14.3749 13.75C14.7204 13.75 15 13.4704 15 13.125V12.9575L15.1452 13.0414C15.2435 13.0981 15.3509 13.125 15.4571 13.125C15.6732 13.125 15.8831 13.0127 15.9991 12.8125C16.1718 12.5134 16.0693 12.1313 15.7702 11.9586L15.6253 11.875L15.7702 11.7914C16.0693 11.6187 16.1718 11.2366 15.9991 10.9375Z" fill="#797979"/>
<path d="M28.75 15V14.375C28.75 13.1875 28.2708 12.112 27.5 11.3228V8.74996C27.5 7.37119 26.3788 6.24994 25 6.24994H2.50002C1.12119 6.25 0 7.37119 0 8.74996V15C0 16.3787 1.12119 17.5 2.50002 17.5H18.75V22.5C18.75 23.189 19.3109 23.75 20 23.75H28.75C29.439 23.75 29.9999 23.189 29.9999 22.5V16.25C30 15.5609 29.4391 15 28.75 15ZM27.5 14.375V15H21.25V14.375C21.25 12.652 22.652 11.25 24.375 11.25C26.098 11.25 27.5 12.652 27.5 14.375ZM18.75 16.25H2.50002C1.81096 16.25 1.25004 15.689 1.25004 15V8.74996C1.25004 8.0609 1.81096 7.49998 2.50002 7.49998H25C25.6891 7.49998 26.25 8.0609 26.25 8.74996V10.4388C25.6795 10.1657 25.0485 9.99994 24.375 9.99994C22.8627 9.99994 21.528 10.7722 20.742 11.9422L20.6254 11.8749L20.7703 11.7913C21.0693 11.6186 21.1719 11.2365 20.9991 10.9374C20.8258 10.6384 20.4419 10.5358 20.1452 10.7086L20 10.7924V10.625C20 10.2795 19.7204 9.99994 19.375 9.99994C19.0295 9.99994 18.7499 10.2795 18.7499 10.625V10.7924L18.6047 10.7086C18.3062 10.5358 17.9235 10.6384 17.7508 10.9374C17.5781 11.2365 17.6806 11.6186 17.9797 11.7913L18.1246 11.8749L17.9797 11.9586C17.6806 12.1313 17.5781 12.5134 17.7508 12.8124C17.8668 13.0127 18.0768 13.1249 18.2928 13.1249C18.399 13.1249 18.5064 13.0981 18.6047 13.0413L18.7499 12.9575V13.125C18.7499 13.4704 19.0295 13.75 19.375 13.75C19.7204 13.75 20 13.4704 20 13.125V12.9575L20.1452 13.0414C20.1699 13.0556 20.1978 13.0518 20.2235 13.0623C20.091 13.4794 20 13.9147 20 14.375V15C19.3109 15 18.75 15.5609 18.75 16.25ZM28.75 22.5H20V16.25H28.75V22.5H28.75Z" fill="#797979"/>
<path d="M23.75 19.8078V20.625C23.75 20.9705 24.0296 21.25 24.375 21.25C24.7205 21.25 25.0001 20.9705 25.0001 20.625V19.8078C25.3667 19.5896 25.6251 19.2065 25.6251 18.75C25.6251 18.0609 25.0642 17.5 24.3751 17.5C23.686 17.5 23.1251 18.0609 23.1251 18.75C23.1251 19.2066 23.3834 19.5896 23.75 19.8078Z" fill="#797979"/>
</svg>
