<svg width="25" height="25" viewBox="0 0 25 25" fill="none" xmlns="http://www.w3.org/2000/svg">
<path d="M16.7629 24.4932H3.33588C3.24628 24.4932 3.16035 24.4576 3.097 24.3943C3.03364 24.3309 2.99805 24.245 2.99805 24.1554V5.25811C2.99805 5.16851 3.03364 5.08258 3.097 5.01922C3.16035 4.95587 3.24628 4.92027 3.33588 4.92027H16.7629C16.8525 4.92027 16.9384 4.95587 17.0018 5.01922C17.0652 5.08258 17.1007 5.16851 17.1007 5.25811V24.1554C17.1007 24.245 17.0652 24.3309 17.0018 24.3943C16.9384 24.4576 16.8525 24.4932 16.7629 24.4932ZM3.67372 23.8176H16.4251V5.59595H3.67372V23.8176Z" fill="#797979"/>
<path d="M22.9245 24.4932H2.07587C1.98627 24.4932 1.90034 24.4577 1.83699 24.3943C1.77363 24.3309 1.73804 24.245 1.73804 24.1554C1.73804 24.0658 1.77363 23.9799 1.83699 23.9165C1.90034 23.8532 1.98627 23.8176 2.07587 23.8176H22.9245C23.0141 23.8176 23.1001 23.8532 23.1634 23.9165C23.2268 23.9799 23.2624 24.0658 23.2624 24.1554C23.2624 24.245 23.2268 24.3309 23.1634 24.3943C23.1001 24.4577 23.0141 24.4932 22.9245 24.4932Z" fill="#797979"/>
<path d="M15.4791 5.59595H4.61958C4.52998 5.59595 4.44405 5.56035 4.38069 5.497C4.31733 5.43364 4.28174 5.34771 4.28174 5.25811V3.54223C4.28174 3.45263 4.31733 3.3667 4.38069 3.30334C4.44405 3.23999 4.52998 3.20439 4.61958 3.20439H15.4791C15.5687 3.20439 15.6546 3.23999 15.7179 3.30334C15.7813 3.3667 15.8169 3.45263 15.8169 3.54223V5.25811C15.8169 5.34771 15.7813 5.43364 15.7179 5.497C15.6546 5.56035 15.5687 5.59595 15.4791 5.59595ZM4.95741 4.92027H15.1412V3.88007H4.95741V4.92027Z" fill="#797979"/>
<path d="M13.4073 3.88007H6.69111C6.60151 3.88007 6.51558 3.84447 6.45222 3.78112C6.38887 3.71776 6.35327 3.63183 6.35327 3.54223V1.18243C6.35327 1.09283 6.38887 1.0069 6.45222 0.943547C6.51558 0.88019 6.60151 0.844597 6.69111 0.844597H13.4073C13.4969 0.844597 13.5829 0.88019 13.6462 0.943547C13.7096 1.0069 13.7452 1.09283 13.7452 1.18243V3.54223C13.7452 3.63183 13.7096 3.71776 13.6462 3.78112C13.5829 3.84447 13.4969 3.88007 13.4073 3.88007ZM7.02895 3.20439H13.0695V1.52027H7.02895V3.20439Z" fill="#797979"/>
<path d="M7.31986 9.73886H5.28169C5.19208 9.73886 5.10615 9.70326 5.0428 9.63991C4.97944 9.57655 4.94385 9.49062 4.94385 9.40102V7.3598C4.94385 7.2702 4.97944 7.18426 5.0428 7.12091C5.10615 7.05755 5.19208 7.02196 5.28169 7.02196H7.31986C7.40946 7.02196 7.49539 7.05755 7.55875 7.12091C7.6221 7.18426 7.6577 7.2702 7.6577 7.3598V9.40102C7.6577 9.49062 7.6221 9.57655 7.55875 9.63991C7.49539 9.70326 7.40946 9.73886 7.31986 9.73886ZM5.61952 9.06318H6.98202V7.69763H5.61952V9.06318Z" fill="#797979"/>
<path d="M10.9733 9.73886H8.93476C8.84516 9.73886 8.75923 9.70326 8.69587 9.63991C8.63252 9.57655 8.59692 9.49062 8.59692 9.40102V7.3598C8.59692 7.2702 8.63252 7.18426 8.69587 7.12091C8.75923 7.05755 8.84516 7.02196 8.93476 7.02196H10.9733C11.0629 7.02196 11.1488 7.05755 11.2122 7.12091C11.2755 7.18426 11.3111 7.2702 11.3111 7.3598V9.40102C11.3111 9.49062 11.2755 9.57655 11.2122 9.63991C11.1488 9.70326 11.0629 9.73886 10.9733 9.73886ZM9.2726 9.06318H10.6354V7.69763H9.2726V9.06318Z" fill="#797979"/>
<path d="M10.9733 13.5557H8.93476C8.84516 13.5557 8.75923 13.5202 8.69587 13.4568C8.63252 13.3934 8.59692 13.3075 8.59692 13.2179V11.1794C8.59692 11.0898 8.63252 11.0039 8.69587 10.9405C8.75923 10.8771 8.84516 10.8416 8.93476 10.8416H10.9733C11.0629 10.8416 11.1488 10.8771 11.2122 10.9405C11.2755 11.0039 11.3111 11.0898 11.3111 11.1794V13.2179C11.3111 13.3075 11.2755 13.3934 11.2122 13.4568C11.1488 13.5202 11.0629 13.5557 10.9733 13.5557ZM9.2726 12.8801H10.6354V11.5172H9.2726V12.8801Z" fill="#797979"/>
<path d="M14.8167 9.73886H12.7785C12.6889 9.73886 12.603 9.70326 12.5396 9.63991C12.4763 9.57655 12.4407 9.49062 12.4407 9.40102V7.3598C12.4407 7.2702 12.4763 7.18426 12.5396 7.12091C12.603 7.05755 12.6889 7.02196 12.7785 7.02196H14.8167C14.9063 7.02196 14.9922 7.05755 15.0556 7.12091C15.1189 7.18426 15.1545 7.2702 15.1545 7.3598V9.40102C15.1545 9.49062 15.1189 9.57655 15.0556 9.63991C14.9922 9.70326 14.9063 9.73886 14.8167 9.73886ZM13.1164 9.06318H14.4789V7.69763H13.1164V9.06318Z" fill="#797979"/>
<path d="M14.8167 13.5557H12.7785C12.6889 13.5557 12.603 13.5202 12.5396 13.4568C12.4763 13.3934 12.4407 13.3075 12.4407 13.2179V11.1794C12.4407 11.0898 12.4763 11.0039 12.5396 10.9405C12.603 10.8771 12.6889 10.8416 12.7785 10.8416H14.8167C14.9063 10.8416 14.9922 10.8771 15.0556 10.9405C15.1189 11.0039 15.1545 11.0898 15.1545 11.1794V13.2179C15.1545 13.3075 15.1189 13.3934 15.0556 13.4568C14.9922 13.5202 14.9063 13.5557 14.8167 13.5557ZM13.1164 12.8801H14.4789V11.5172H13.1164V12.8801Z" fill="#797979"/>
<path d="M20.1368 15.7433H18.2128C18.1232 15.7433 18.0373 15.7077 17.9739 15.6443C17.9106 15.5809 17.875 15.495 17.875 15.4054V13.4797C17.875 13.3901 17.9106 13.3042 17.9739 13.2408C18.0373 13.1775 18.1232 13.1419 18.2128 13.1419H20.1385C20.2281 13.1419 20.314 13.1775 20.3774 13.2408C20.4407 13.3042 20.4763 13.3901 20.4763 13.4797V15.4054C20.4763 15.4499 20.4675 15.494 20.4505 15.5351C20.4334 15.5762 20.4083 15.6135 20.3768 15.6449C20.3452 15.6763 20.3078 15.7011 20.2666 15.718C20.2254 15.7349 20.1813 15.7435 20.1368 15.7433ZM18.5507 15.0676H19.8007V13.8176H18.5507V15.0676Z" fill="#797979"/>
<path d="M20.1368 22.6351H18.2128C18.1232 22.6351 18.0373 22.5996 17.9739 22.5362C17.9106 22.4728 17.875 22.3869 17.875 22.2973V20.3716C17.875 20.282 17.9106 20.1961 17.9739 20.1327C18.0373 20.0694 18.1232 20.0338 18.2128 20.0338H20.1385C20.2281 20.0338 20.314 20.0694 20.3774 20.1327C20.4407 20.1961 20.4763 20.282 20.4763 20.3716V22.2973C20.4763 22.3418 20.4675 22.3859 20.4505 22.427C20.4334 22.4681 20.4083 22.5054 20.3768 22.5368C20.3452 22.5682 20.3078 22.593 20.2666 22.6099C20.2254 22.6268 20.1813 22.6354 20.1368 22.6351ZM18.5507 21.9595H19.8007V20.7095H18.5507V21.9595Z" fill="#797979"/>
<path d="M20.1368 19.1892H18.2128C18.1232 19.1892 18.0373 19.1536 17.9739 19.0902C17.9106 19.0269 17.875 18.941 17.875 18.8514V16.9257C17.875 16.8361 17.9106 16.7501 17.9739 16.6868C18.0373 16.6234 18.1232 16.5878 18.2128 16.5878H20.1385C20.2281 16.5878 20.314 16.6234 20.3774 16.6868C20.4407 16.7501 20.4763 16.8361 20.4763 16.9257V18.8514C20.4763 18.8959 20.4675 18.9399 20.4505 18.981C20.4334 19.0221 20.4083 19.0595 20.3768 19.0908C20.3452 19.1222 20.3078 19.1471 20.2666 19.164C20.2254 19.1808 20.1813 19.1894 20.1368 19.1892ZM18.5507 18.5135H19.8007V17.2635H18.5507V18.5135Z" fill="#797979"/>
<path d="M7.31986 13.5557H5.28169C5.19208 13.5557 5.10615 13.5202 5.0428 13.4568C4.97944 13.3934 4.94385 13.3075 4.94385 13.2179V11.1794C4.94385 11.0898 4.97944 11.0039 5.0428 10.9405C5.10615 10.8771 5.19208 10.8416 5.28169 10.8416H7.31986C7.40946 10.8416 7.49539 10.8771 7.55875 10.9405C7.6221 11.0039 7.6577 11.0898 7.6577 11.1794V13.2179C7.6577 13.3075 7.6221 13.3934 7.55875 13.4568C7.49539 13.5202 7.40946 13.5557 7.31986 13.5557ZM5.61952 12.8801H6.98202V11.5172H5.61952V12.8801Z" fill="#797979"/>
<path d="M12.7057 24.4932H7.39253C7.30293 24.4932 7.21699 24.4576 7.15364 24.3943C7.09028 24.3309 7.05469 24.245 7.05469 24.1554V16.878C7.05469 16.7884 7.09028 16.7025 7.15364 16.6392C7.21699 16.5758 7.30293 16.5402 7.39253 16.5402H12.7057C12.7953 16.5402 12.8812 16.5758 12.9446 16.6392C13.008 16.7025 13.0436 16.7884 13.0436 16.878V24.1554C13.0436 24.245 13.008 24.3309 12.9446 24.3943C12.8812 24.4576 12.7953 24.4932 12.7057 24.4932ZM7.73036 23.8176H12.3679V17.2159H7.73036V23.8176Z" fill="#797979"/>
<path d="M21.5879 24.4932H16.7629C16.6733 24.4932 16.5874 24.4576 16.524 24.3943C16.4606 24.3309 16.425 24.245 16.425 24.1554V11.7642C16.425 11.6746 16.4606 11.5887 16.524 11.5253C16.5874 11.4619 16.6733 11.4264 16.7629 11.4264H21.5879C21.6775 11.4264 21.7634 11.4619 21.8268 11.5253C21.8901 11.5887 21.9257 11.6746 21.9257 11.7642V24.1554C21.9257 24.245 21.8901 24.3309 21.8268 24.3943C21.7634 24.4576 21.6775 24.4932 21.5879 24.4932ZM17.1017 23.8176H21.25V12.102H17.1007L17.1017 23.8176Z" fill="#797979"/>
</svg>
