<svg width="25" height="25" viewBox="0 0 25 25" fill="none" xmlns="http://www.w3.org/2000/svg">
<path d="M12.5001 0C7.98258 0 4.30737 3.67281 4.30737 8.18735C4.30737 12.5261 11.7528 24.2662 12.0697 24.7639C12.1634 24.9109 12.3257 25 12.5001 25C12.6745 25 12.8368 24.9109 12.9304 24.7639C13.2473 24.2662 20.6927 12.5261 20.6927 8.18735C20.6927 3.67281 17.0175 0 12.5001 0ZM12.5001 23.5269C11.8263 22.4369 10.4588 20.1806 9.10472 17.6806C6.63385 13.1184 5.32783 9.83577 5.32783 8.18735C5.32778 4.23546 8.54528 1.02041 12.5001 1.02041C16.4549 1.02041 19.6723 4.23546 19.6723 8.18735C19.6723 9.83577 18.3662 13.1184 15.8954 17.6806C14.5413 20.1806 13.1739 22.4369 12.5001 23.5269Z" fill="#797979"/>
<path d="M12.5 3.8812C10.363 3.8812 8.62451 5.57247 8.62451 7.6513C8.62451 9.73007 10.363 11.4212 12.5 11.4212C14.6369 11.4212 16.3754 9.73007 16.3754 7.6513C16.3754 5.57247 14.6369 3.8812 12.5 3.8812ZM12.5 10.4008C10.9257 10.4008 9.64492 9.16737 9.64492 7.65125C9.64492 6.13507 10.9257 4.90155 12.5 4.90155C14.0742 4.90155 15.355 6.13507 15.355 7.65125C15.355 9.16737 14.0743 10.4008 12.5 10.4008Z" fill="#797979"/>
</svg>
