<svg width="25" height="25" viewBox="0 0 25 25" fill="none" xmlns="http://www.w3.org/2000/svg">
<path d="M14.5833 1.25H10.4167C10.1867 1.25 10 1.43667 10 1.66665C10 1.89663 10.1867 2.0833 10.4167 2.0833H14.5833C14.8133 2.0833 15 1.89663 15 1.66665C15 1.43667 14.8133 1.25 14.5833 1.25Z" fill="#797979"/>
<path d="M17.5 1.25H17.0834C16.8534 1.25 16.6667 1.43667 16.6667 1.66665C16.6667 1.89663 16.8534 2.0833 17.0834 2.0833H17.5C17.73 2.0833 17.9167 1.89663 17.9167 1.66665C17.9167 1.43667 17.73 1.25 17.5 1.25Z" fill="#797979"/>
<path d="M13.0176 21.25H11.9831C11.3493 21.25 10.8335 21.7658 10.8335 22.3996V22.6008C10.8335 23.2346 11.3493 23.75 11.9827 23.75H13.0172C13.651 23.75 14.1668 23.2346 14.1668 22.6008V22.3996C14.1668 21.7658 13.651 21.25 13.0176 21.25ZM13.3335 22.6008C13.3335 22.775 13.1918 22.9167 13.0177 22.9167H11.9831C11.8085 22.9167 11.6668 22.775 11.6668 22.6008V22.3996C11.6668 22.225 11.8084 22.0833 11.9831 22.0833H13.0172C13.1918 22.0833 13.3335 22.225 13.3335 22.3996V22.6008Z" fill="#797979"/>
<path d="M18.0773 0H6.92275C6.09233 0 5.4165 0.67583 5.4165 1.50625V23.4937C5.4165 24.3242 6.09233 25 6.92275 25H18.0769C18.9073 25 19.5832 24.3242 19.5832 23.4942V1.50625C19.5832 0.67583 18.9074 0 18.0773 0ZM18.7499 23.4937C18.7499 23.8646 18.4482 24.1667 18.0773 24.1667H6.92275C6.55151 24.1667 6.24985 23.8646 6.24985 23.4941V1.50625C6.24985 1.1354 6.55151 0.83335 6.92275 0.83335H18.0769C18.4481 0.83335 18.7498 1.13545 18.7498 1.50625V23.4937H18.7499Z" fill="#797979"/>
<path d="M19.1665 2.5H5.83315C5.60317 2.5 5.4165 2.68667 5.4165 2.91665V20.4166C5.4165 20.6466 5.60317 20.8333 5.83315 20.8333H19.1665C19.3965 20.8333 19.5832 20.6466 19.5832 20.4166V2.91665C19.5832 2.68667 19.3965 2.5 19.1665 2.5ZM18.7498 20H6.2498V3.33335H18.7498V20Z" fill="#797979"/>
</svg>
