<svg width="25" height="13" viewBox="0 0 25 13" fill="none" xmlns="http://www.w3.org/2000/svg">
<path d="M9.17969 1.85938H5.52344V12H4.03125V1.85938H0.382812V0.625H9.17969V1.85938ZM14.9688 12C14.8854 11.8333 14.8177 11.5365 14.7656 11.1094C14.0938 11.8073 13.2917 12.1562 12.3594 12.1562C11.526 12.1562 10.8411 11.9219 10.3047 11.4531C9.77344 10.9792 9.50781 10.3802 9.50781 9.65625C9.50781 8.77604 9.84115 8.09375 10.5078 7.60938C11.1797 7.11979 12.1224 6.875 13.3359 6.875H14.7422V6.21094C14.7422 5.70573 14.5911 5.30469 14.2891 5.00781C13.987 4.70573 13.5417 4.55469 12.9531 4.55469C12.4375 4.55469 12.0052 4.6849 11.6562 4.94531C11.3073 5.20573 11.1328 5.52083 11.1328 5.89062H9.67969C9.67969 5.46875 9.82812 5.0625 10.125 4.67188C10.4271 4.27604 10.8333 3.96354 11.3438 3.73438C11.8594 3.50521 12.4245 3.39062 13.0391 3.39062C14.013 3.39062 14.776 3.63542 15.3281 4.125C15.8802 4.60938 16.1667 5.27865 16.1875 6.13281V10.0234C16.1875 10.7995 16.2865 11.4167 16.4844 11.875V12H14.9688ZM12.5703 10.8984C13.0234 10.8984 13.4531 10.7812 13.8594 10.5469C14.2656 10.3125 14.5599 10.0078 14.7422 9.63281V7.89844H13.6094C11.8385 7.89844 10.9531 8.41667 10.9531 9.45312C10.9531 9.90625 11.1042 10.2604 11.4062 10.5156C11.7083 10.7708 12.0964 10.8984 12.5703 10.8984ZM21.2891 6.63281L23.1641 3.54688H24.8516L22.0859 7.72656L24.9375 12H23.2656L21.3125 8.83594L19.3594 12H17.6797L20.5312 7.72656L17.7656 3.54688H19.4375L21.2891 6.63281Z" fill="#797979"/>
</svg>
