<svg width="25" height="25" viewBox="0 0 25 25" fill="none" xmlns="http://www.w3.org/2000/svg">
<path d="M21.5315 3.8473C19.172 1.3844 15.9072 -0.00553751 12.4964 0.000738324C5.60355 -0.00794325 0.00869147 5.57279 9.89546e-06 12.4657C-0.00427859 15.874 1.38551 19.1358 3.84657 21.4936C3.85374 21.5008 3.85641 21.5115 3.86352 21.5178C3.9358 21.5874 4.01435 21.6463 4.08757 21.7132C4.28839 21.8917 4.48922 22.0765 4.70077 22.2488C4.8141 22.3381 4.93193 22.4273 5.04798 22.5094C5.24792 22.6584 5.44785 22.8075 5.65668 22.945C5.79862 23.0343 5.945 23.1235 6.09045 23.2128C6.28322 23.3288 6.47516 23.4457 6.6742 23.5519C6.84292 23.6412 7.01514 23.7179 7.18652 23.7991C7.37396 23.8884 7.55873 23.9776 7.75061 24.058C7.9425 24.1383 8.13532 24.2008 8.32987 24.2704C8.52442 24.34 8.69225 24.4043 8.8788 24.4614C9.08946 24.5248 9.30545 24.5738 9.51967 24.6265C9.69816 24.6702 9.87132 24.7202 10.0552 24.7559C10.3015 24.805 10.5515 24.8363 10.8014 24.8702C10.9558 24.8916 11.1067 24.922 11.2628 24.9371C11.6717 24.9773 12.084 24.9996 12.4999 24.9996C12.9158 24.9996 13.3282 24.9773 13.737 24.9371C13.8932 24.922 14.044 24.8916 14.1984 24.8702C14.4483 24.8363 14.6982 24.805 14.9446 24.7559C15.1231 24.7202 15.3016 24.6667 15.4801 24.6265C15.6944 24.5738 15.9103 24.5247 16.121 24.4614C16.3076 24.4043 16.4878 24.3347 16.6699 24.2704C16.852 24.2061 17.0591 24.1365 17.2492 24.058C17.4393 23.9794 17.6259 23.8875 17.8133 23.7991C17.9847 23.7179 18.1569 23.6411 18.3256 23.5519C18.5247 23.4457 18.7165 23.3288 18.9094 23.2128C19.0549 23.1235 19.2012 23.0423 19.3431 22.945C19.552 22.8075 19.7519 22.6585 19.9518 22.5094C20.0679 22.4201 20.1857 22.3398 20.299 22.2488C20.5106 22.0792 20.7114 21.8989 20.9122 21.7132C20.9854 21.6463 21.064 21.5874 21.1363 21.5178C21.1434 21.5115 21.1461 21.5008 21.1532 21.4936C26.1307 16.7252 26.3 8.82462 21.5315 3.8473ZM19.5254 20.5591C19.3629 20.702 19.1951 20.8376 19.0256 20.9688C18.9256 21.0456 18.8256 21.1214 18.723 21.1947C18.5614 21.3116 18.3972 21.4223 18.2303 21.5285C18.1089 21.6061 17.9848 21.6811 17.8598 21.7543C17.7027 21.8436 17.543 21.9328 17.3814 22.0221C17.2386 22.0952 17.0931 22.164 16.9468 22.2318C16.8004 22.2997 16.6388 22.372 16.4808 22.4353C16.3228 22.4987 16.1551 22.5585 15.9899 22.6138C15.8391 22.6656 15.6882 22.7192 15.5356 22.7647C15.3571 22.8182 15.1705 22.8619 14.9858 22.9066C14.8412 22.9405 14.6984 22.9789 14.552 23.0075C14.3404 23.0485 14.1245 23.0771 13.9076 23.1065C13.7844 23.1226 13.6621 23.1449 13.538 23.1574C13.1953 23.1904 12.8481 23.2101 12.4973 23.2101C12.1465 23.2101 11.7993 23.1905 11.4565 23.1574C11.3325 23.1449 11.2102 23.1226 11.087 23.1065C10.8701 23.0771 10.6541 23.0485 10.4426 23.0075C10.2962 22.9789 10.1534 22.9405 10.0088 22.9066C9.82405 22.862 9.64016 22.8173 9.459 22.7647C9.30639 22.7192 9.15551 22.6656 9.00468 22.6138C8.83958 22.5567 8.67442 22.4987 8.51376 22.4353C8.35309 22.372 8.20138 22.3023 8.04783 22.2318C7.89428 22.1613 7.75595 22.0953 7.61317 22.0221C7.45162 21.9382 7.29185 21.8498 7.13475 21.7543C7.0098 21.6811 6.8857 21.6061 6.76431 21.5285C6.59743 21.4223 6.43316 21.3116 6.27161 21.1947C6.16895 21.1215 6.069 21.0456 5.96901 20.9688C5.79941 20.8376 5.63163 20.7011 5.46919 20.5591C5.42991 20.5297 5.3942 20.4922 5.35586 20.4582C5.39576 17.4219 7.34635 14.7409 10.223 13.7685C11.6614 14.4527 13.3314 14.4527 14.7698 13.7685C17.6464 14.7409 19.597 17.4219 19.6369 20.4582C19.5994 20.4922 19.5637 20.5261 19.5254 20.5591ZM9.38395 7.15718C10.3504 5.43844 12.5271 4.82858 14.2458 5.79501C15.9646 6.76144 16.5744 8.93816 15.608 10.6569C15.2874 11.2272 14.8162 11.6984 14.2458 12.0191C14.2414 12.0191 14.236 12.0191 14.2307 12.0244C13.994 12.1561 13.7438 12.2621 13.4845 12.3404C13.4381 12.3538 13.3952 12.3716 13.3461 12.3832C13.2569 12.4064 13.1632 12.4225 13.0712 12.4386C12.8981 12.4688 12.723 12.4864 12.5473 12.4912H12.4455C12.2698 12.4864 12.0947 12.4688 11.9216 12.4386C11.8323 12.4225 11.7377 12.4064 11.6467 12.3832C11.5994 12.3716 11.5574 12.3538 11.5084 12.3404C11.249 12.2621 10.9989 12.1562 10.7622 12.0244L10.7461 12.0191C9.02738 11.0526 8.41753 8.87592 9.38395 7.15718ZM21.2203 18.6883C20.6476 16.0168 18.8883 13.7519 16.4415 12.5359C18.4417 10.3571 18.2968 6.96937 16.118 4.96921C13.9392 2.96905 10.5515 3.11392 8.55131 5.29273C6.67096 7.34106 6.67096 10.4877 8.55131 12.5359C6.10451 13.7519 4.34529 16.0168 3.77252 18.6883C0.349888 13.8673 1.48351 7.18448 6.30456 3.76185C11.1256 0.339215 17.8084 1.47284 21.2311 6.29389C22.5177 8.10619 23.2083 10.274 23.2072 12.4966C23.2072 14.7173 22.5125 16.8823 21.2203 18.6883Z" fill="#797979"/>
</svg>
