<svg width="35" height="36" viewBox="0 0 35 36" fill="none" xmlns="http://www.w3.org/2000/svg">
<g clip-path="url(#clip0)">
<path d="M14.2432 13.2239C14.8876 13.4223 15.5464 13.5206 16.2018 13.5206C17.2768 13.5206 18.3424 13.2561 19.3188 12.7347C22.5627 11.0026 23.8002 6.93935 22.0773 3.67695C21.2427 2.09666 19.8461 0.93789 18.1447 0.414081C16.4434 -0.109865 14.641 0.0639818 13.0691 0.903244L13.069 0.903313C9.82558 2.63621 8.58814 6.69944 10.3106 9.96101C11.1452 11.5414 12.5418 12.7001 14.2432 13.2239ZM13.5502 1.81386L13.5501 1.81393C14.88 1.10383 16.4052 0.957 17.8445 1.40004C19.284 1.84314 20.4656 2.82353 21.1717 4.16062C22.6294 6.92092 21.5824 10.3587 18.8379 11.8242C17.5079 12.5343 15.983 12.6813 14.5435 12.2381C13.104 11.795 11.9224 10.8146 11.2163 9.47748C9.75893 6.71793 10.8059 3.28004 13.5502 1.81386Z" fill="#E5E5E5"/>
<path d="M13.4859 8.49289H14.5311V9.54189C14.5311 10.1958 15.0593 10.7277 15.7085 10.7277H16.6793C17.3296 10.7277 17.8586 10.1958 17.8586 9.54189V8.49289H18.9019C19.5522 8.49289 20.0812 7.96097 20.0812 7.30711V6.33091C20.0812 5.67705 19.5522 5.14513 18.9019 5.14513H17.8586V4.09613C17.8586 3.44227 17.3296 2.91035 16.6793 2.91035H15.7085C15.0593 2.91035 14.5311 3.44227 14.5311 4.09613V5.14513H13.4859C12.8357 5.14513 12.3066 5.67705 12.3066 6.33091V7.30711C12.3066 7.96097 12.8357 8.49289 13.4859 8.49289ZM13.332 6.33091C13.332 6.24705 13.4025 6.17618 13.4859 6.17618H15.0439C15.327 6.17618 15.5566 5.94541 15.5566 5.66062V4.09607C15.5566 4.0122 15.6262 3.94133 15.7085 3.94133H16.6793C16.7627 3.94133 16.8332 4.0122 16.8332 4.09607V5.66062C16.8332 5.94534 17.0628 6.17618 17.3459 6.17618H18.9019C18.9853 6.17618 19.0558 6.24705 19.0558 6.33091V7.30711C19.0558 7.39097 18.9853 7.46184 18.9019 7.46184H17.3459C17.0628 7.46184 16.8332 7.69261 16.8332 7.9774V9.54195C16.8332 9.62582 16.7627 9.69669 16.6793 9.69669H15.7085C15.6261 9.69669 15.5566 9.62582 15.5566 9.54195V7.9774C15.5566 7.69268 15.327 7.46184 15.0439 7.46184H13.4859C13.4025 7.46184 13.332 7.39097 13.332 7.30711V6.33091Z" fill="#E5E5E5"/>
<path d="M33.006 30.3251V26.0793H34.3807C34.6639 26.0793 34.8934 25.8485 34.8934 25.5637V15.2333C34.8934 14.1422 34.0097 13.2545 32.9235 13.2545C32.0157 13.2545 31.2499 13.8759 31.0237 14.7177H26.403C26.1198 14.7177 25.8903 14.9485 25.8903 15.2333C25.8903 15.5181 26.1198 15.7488 26.403 15.7488H30.9555V25.0483H17.0933V17.8441C17.0933 16.6887 18.0281 15.7487 19.1771 15.7487H24.035C24.3182 15.7487 24.5477 15.518 24.5477 15.2332C24.5477 14.9484 24.3182 14.7176 24.035 14.7176H19.1771C17.4627 14.7176 16.0678 16.1201 16.0678 17.8441V17.9832H9.94205C9.92243 17.1764 9.43448 16.416 8.65936 16.0935C8.64521 16.0876 8.63078 16.0823 8.61615 16.0777L3.93791 14.6087V11.9541C3.93791 10.8619 3.05416 9.97338 1.968 9.97338C0.882793 9.97331 0 10.8619 0 11.954V16.7784C0 17.0631 0.229551 17.2939 0.512695 17.2939C0.79584 17.2939 1.02539 17.0632 1.02539 16.7784V11.954C1.02539 11.4304 1.44819 11.0044 1.96793 11.0044C2.48869 11.0044 2.91238 11.4304 2.91238 11.954V22.6353C2.91238 22.92 3.14193 23.1508 3.42508 23.1508H16.0677V25.0481H1.02546V19.1593C1.02546 18.8746 0.795908 18.6437 0.512764 18.6437C0.229619 18.6437 6.83594e-05 18.8745 6.83594e-05 19.1593V25.5637C6.83594e-05 25.8484 0.229619 26.0793 0.512764 26.0793H2.41254V30.3251C1.27545 30.5637 0.418633 31.5793 0.418633 32.7925C0.418633 34.1822 1.54314 35.3129 2.9253 35.3129C4.30746 35.3129 5.43197 34.1822 5.43197 32.7925C5.43197 31.5793 4.57509 30.5638 3.43807 30.3251V28.6902H31.9806V30.3251C30.8435 30.5637 29.9866 31.5793 29.9866 32.7925C29.9866 34.1822 31.1111 35.3129 32.4933 35.3129C33.8754 35.3129 35 34.1821 35 32.7924C35 31.5792 34.1431 30.5637 33.006 30.3251ZM32.9234 14.2855C33.4443 14.2855 33.8679 14.7106 33.8679 15.2333V25.0482H31.981V15.2333C31.981 14.7106 32.4038 14.2855 32.9234 14.2855ZM8.28625 17.0544C8.66175 17.2195 8.89984 17.589 8.91707 17.9833H3.93791V15.6888L8.28625 17.0544ZM3.93791 22.1198V19.0143H9.35853H16.0678V22.1198H3.93791ZM4.40645 32.7924C4.40645 33.6136 3.74199 34.2817 2.92523 34.2817C2.10848 34.2817 1.44402 33.6136 1.44402 32.7924C1.44402 31.9711 2.10848 31.303 2.92523 31.303C3.74199 31.303 4.40645 31.9711 4.40645 32.7924ZM3.43793 27.6591V26.0793H31.9806V27.6591H3.43793ZM32.4933 34.2818C31.6766 34.2818 31.0121 33.6137 31.0121 32.7925C31.0121 31.9711 31.6766 31.303 32.4933 31.303C33.3101 31.303 33.9745 31.9711 33.9745 32.7925C33.9745 33.6136 33.3101 34.2818 32.4933 34.2818Z" fill="#E5E5E5"/>
</g>
<defs>
<clipPath id="clip0">
<rect width="35" height="35.1955" fill="white" transform="translate(0 0.117317)"/>
</clipPath>
</defs>
</svg>
