<svg width="40" height="41" viewBox="0 0 40 41" fill="none" xmlns="http://www.w3.org/2000/svg">
<path d="M39.1919 19.6674L20.4419 0.812638C20.3247 0.694814 20.1657 0.628624 20 0.628624C19.8343 0.628624 19.6753 0.694814 19.5581 0.812638L0.808118 19.6674C0.720737 19.7553 0.661233 19.8673 0.637128 19.9892C0.613023 20.1111 0.6254 20.2374 0.672694 20.3522C0.719988 20.4671 0.800075 20.5652 0.902831 20.6343C1.00559 20.7033 1.1264 20.7402 1.24999 20.7402H4.37499V35.824H3.74999C3.58423 35.824 3.42526 35.8902 3.30805 36.0081C3.19084 36.126 3.12499 36.2858 3.12499 36.4525V38.9665C3.12499 39.1332 3.19084 39.293 3.30805 39.4109C3.42526 39.5288 3.58423 39.595 3.74999 39.595H36.25C36.4158 39.595 36.5747 39.5288 36.6919 39.4109C36.8091 39.293 36.875 39.1332 36.875 38.9665V36.4525C36.875 36.2858 36.8091 36.126 36.6919 36.0081C36.5747 35.8902 36.4158 35.824 36.25 35.824H35.625V20.7402H38.75C38.8736 20.7402 38.9944 20.7033 39.0972 20.6343C39.1999 20.5652 39.28 20.4671 39.3273 20.3522C39.3746 20.2374 39.387 20.1111 39.3629 19.9892C39.3388 19.8673 39.2792 19.7553 39.1919 19.6674ZM35.625 38.338H4.37499V37.081H35.625V38.338ZM16.875 35.824H9.37499V24.5112H16.875V35.824ZM18.125 35.824V23.8827C18.125 23.716 18.0591 23.5561 17.9419 23.4383C17.8247 23.3204 17.6658 23.2542 17.5 23.2542H8.74999C8.58423 23.2542 8.42526 23.3204 8.30805 23.4383C8.19084 23.5561 8.12499 23.716 8.12499 23.8827V35.824H5.62499V20.3719L20 5.91662L34.375 20.3719V35.824H18.125ZM35.2587 19.4832L20.4419 4.58359C20.3247 4.46576 20.1657 4.39957 20 4.39957C19.8343 4.39957 19.6753 4.46576 19.5581 4.58359L4.74124 19.4832H2.75874L20 2.14567L37.2412 19.4832H35.2587Z" fill="#E5E5E5"/>
<path d="M24.375 16.3408C24.375 15.4707 24.1184 14.6201 23.6377 13.8966C23.1569 13.1731 22.4737 12.6092 21.6742 12.2762C20.8748 11.9432 19.9951 11.8561 19.1465 12.0259C18.2978 12.1956 17.5183 12.6146 16.9064 13.2299C16.2946 13.8452 15.8779 14.6291 15.7091 15.4825C15.5403 16.3359 15.6269 17.2205 15.958 18.0244C16.2892 18.8283 16.8499 19.5154 17.5694 19.9988C18.2888 20.4822 19.1347 20.7402 20 20.7402C21.1599 20.7389 22.2719 20.275 23.0921 19.4502C23.9123 18.6254 24.3737 17.5072 24.375 16.3408ZM16.875 16.3408C16.875 15.7193 17.0583 15.1117 17.4017 14.5949C17.745 14.0782 18.2331 13.6754 18.8041 13.4375C19.3751 13.1997 20.0035 13.1375 20.6097 13.2587C21.2159 13.38 21.7727 13.6792 22.2097 14.1187C22.6467 14.5582 22.9444 15.1181 23.065 15.7277C23.1855 16.3373 23.1236 16.9691 22.8871 17.5433C22.6506 18.1176 22.2501 18.6083 21.7362 18.9536C21.2223 19.2989 20.6181 19.4832 20 19.4832C19.1715 19.4822 18.3772 19.1508 17.7914 18.5617C17.2056 17.9726 16.876 17.1739 16.875 16.3408Z" fill="#E5E5E5"/>
<path d="M32.5 23.2542H20C19.8342 23.2542 19.6753 23.3204 19.5581 23.4383C19.4408 23.5561 19.375 23.716 19.375 23.8827V32.6816C19.375 32.8483 19.4408 33.0081 19.5581 33.126C19.6753 33.2438 19.8342 33.3101 20 33.3101H32.5C32.6658 33.3101 32.8247 33.2438 32.9419 33.126C33.0592 33.0081 33.125 32.8483 33.125 32.6816V23.8827C33.125 23.716 33.0592 23.5561 32.9419 23.4383C32.8247 23.3204 32.6658 23.2542 32.5 23.2542ZM31.875 27.6536H26.875V24.5112H31.875V27.6536ZM25.625 24.5112V27.6536H20.625V24.5112H25.625ZM20.625 28.9106H25.625V32.0531H20.625V28.9106ZM26.875 32.0531V28.9106H31.875V32.0531H26.875Z" fill="#E5E5E5"/>
<path d="M11.875 28.2821H10.625V30.7961H11.875V28.2821Z" fill="#E5E5E5"/>
</svg>
