<svg width="35" height="36" viewBox="0 0 35 36" fill="none" xmlns="http://www.w3.org/2000/svg">
<g clip-path="url(#clip0)">
<path d="M32.4365 11.0339H30.1139C29.8308 11.0339 29.6012 11.2647 29.6012 11.5494C29.6012 11.8342 29.8308 12.065 30.1139 12.065H32.4365C33.2847 12.065 33.9746 12.7588 33.9746 13.6117V34.2585C33.9746 34.2775 33.9593 34.2929 33.9404 34.2929H28.2338V32.2307H30.8528C31.4344 32.2307 31.9097 31.7548 31.9123 31.17L31.9238 28.6314C31.9292 28.0488 31.4419 27.5582 30.8643 27.5611H28.2338V25.5287H30.8528C31.4344 25.5287 31.9097 25.0529 31.9123 24.4681L31.9238 21.9294C31.9292 21.3468 31.4419 20.8563 30.8643 20.8591H28.2338V18.7968H30.8528C31.4344 18.7968 31.9097 18.321 31.9123 17.7362L31.9238 15.1975C31.9292 14.615 31.4419 14.1244 30.8643 14.1272H28.2338V8.78989C28.2338 7.36846 27.0838 6.2121 25.6703 6.2121H24.0425C23.7802 2.81332 20.9461 0.128494 17.5 0.128494C14.0539 0.128494 11.2198 2.81332 10.9575 6.2121H9.29688C7.88334 6.2121 6.7334 7.36846 6.7334 8.78989V11.0339H2.56348C1.14994 11.0339 0 12.1902 0 13.6117V34.2585C0 34.8461 0.475303 35.324 1.05957 35.324H33.9404C34.5247 35.324 35 34.8461 35 34.2585V13.6117C35 12.1902 33.8501 11.0339 32.4365 11.0339ZM28.2338 15.1584H30.8643C30.8677 15.1584 30.8785 15.1584 30.8885 15.1685C30.8984 15.1786 30.8984 15.1893 30.8984 15.1928L30.887 17.7314C30.887 17.7503 30.8716 17.7656 30.8528 17.7656H28.2338V15.1584ZM28.2338 21.8902H30.8643C30.8677 21.8902 30.8785 21.8902 30.8885 21.9003C30.8984 21.9104 30.8984 21.9212 30.8984 21.9247L30.887 24.4633C30.887 24.4822 30.8716 24.4975 30.8528 24.4975H28.2338V21.8902ZM28.2338 28.5922H30.8643C30.8677 28.5922 30.8785 28.5922 30.8885 28.6023C30.8984 28.6124 30.8984 28.6232 30.8984 28.6267L30.887 31.1653C30.887 31.1842 30.8716 31.1995 30.8528 31.1995H28.2338V28.5922ZM6.7334 31.1995H4.14736C4.12829 31.1995 4.11325 31.1846 4.11318 31.1655L4.10156 28.627C4.10156 28.6233 4.10149 28.6124 4.11154 28.6023C4.12152 28.5922 4.13226 28.5922 4.13574 28.5922H6.7334V31.1995ZM6.7334 24.4973H4.14736C4.12829 24.4973 4.11325 24.4824 4.11318 24.4632L4.10156 21.9247C4.10156 21.9211 4.10149 21.9104 4.11168 21.9001C4.12173 21.8899 4.13226 21.8899 4.13574 21.8899H6.7334V24.4973ZM6.7334 17.7654H4.14736C4.12829 17.7654 4.11325 17.7505 4.11318 17.7314L4.10156 15.1929C4.10156 15.1893 4.10149 15.1786 4.11168 15.1683C4.12173 15.1581 4.13226 15.1581 4.13574 15.1581H6.7334V17.7654ZM6.7334 14.127H4.13574C3.55599 14.1237 3.07104 14.6157 3.07617 15.1976L3.08779 17.7362C3.09046 18.3209 3.56576 18.7966 4.14736 18.7966H6.7334V20.8588H4.13574C3.55599 20.8556 3.07104 21.3476 3.07617 21.9294L3.08779 24.4681C3.09046 25.0528 3.56576 25.5285 4.14736 25.5285H6.7334V27.5611H4.13574C3.55564 27.5579 3.07104 28.0495 3.07617 28.6318L3.08779 31.1704C3.09039 31.755 3.56576 32.2307 4.14736 32.2307H6.7334V34.2929H1.05957C1.0407 34.2929 1.02539 34.2775 1.02539 34.2585V13.6117C1.02539 12.7588 1.71534 12.065 2.56348 12.065H6.7334V14.127ZM17.5 1.15961C20.5532 1.15961 23.0371 3.6574 23.0371 6.72766C23.0371 9.79792 20.5532 12.2957 17.5 12.2957C14.4468 12.2957 11.9629 9.79792 11.9629 6.72766C11.9629 3.6574 14.4468 1.15961 17.5 1.15961ZM22.0817 34.2929H18.0127V25.214H22.0817V34.2929ZM11.8929 24.1829V23.1517H23.1072V24.1829H11.8929ZM27.2084 34.2929H23.1071V25.214C23.6423 25.2452 24.1359 24.8516 24.1325 24.286V23.0486C24.1325 22.5369 23.7185 22.1206 23.2096 22.1206H11.7904C11.2815 22.1206 10.8675 22.5369 10.8675 23.0486V24.286C10.8639 24.8278 11.3487 25.2703 11.8929 25.214V28.8648C11.8929 29.1495 12.1224 29.3803 12.4056 29.3803C12.6887 29.3803 12.9183 29.1495 12.9183 28.8648V25.214H16.9873V34.2929H12.9183V31.2707C12.9183 30.986 12.6887 30.7551 12.4056 30.7551C12.1224 30.7551 11.8929 30.986 11.8929 31.2707V34.2929H7.75879V8.78989C7.75879 7.93702 8.44874 7.24322 9.29688 7.24322H10.9575C11.2198 10.642 14.0539 13.3268 17.5 13.3268C20.9461 13.3268 23.7802 10.642 24.0425 7.24322H25.6703C26.5184 7.24322 27.2084 7.93702 27.2084 8.78989V34.2929ZM15.9619 8.27433V10.3366C15.9619 10.8483 16.3759 11.2646 16.8848 11.2646H18.1152C18.6241 11.2646 19.0381 10.8483 19.0381 10.3366V8.27433H21.0889C21.5977 8.27433 22.0117 7.85804 22.0117 7.34633V6.10898C22.0117 5.59727 21.5977 5.18098 21.0889 5.18098H19.0381V3.11874C19.0381 2.60703 18.6241 2.19073 18.1152 2.19073H16.8848C16.3759 2.19073 15.9619 2.60703 15.9619 3.11874V5.18098H13.9111C13.4023 5.18098 12.9883 5.59727 12.9883 6.10898V7.34633C12.9883 7.85804 13.4023 8.27433 13.9111 8.27433H15.9619ZM14.0137 6.2121H16.2695C16.6653 6.2121 16.9873 5.88833 16.9873 5.49031V3.22185H18.0127V5.49031C18.0127 5.88833 18.3347 6.2121 18.7305 6.2121H20.9863V7.24322H18.7305C18.3347 7.24322 18.0127 7.56699 18.0127 7.965V10.2335H16.9873V7.965C16.9873 7.56699 16.6653 7.24322 16.2695 7.24322H14.0137V6.2121ZM15.4492 30.7967C15.7324 30.7967 15.9619 30.5658 15.9619 30.2811V29.2258C15.9619 28.9411 15.7324 28.7103 15.4492 28.7103C15.1661 28.7103 14.9365 28.9411 14.9365 29.2258V30.2811C14.9365 30.5658 15.1661 30.7967 15.4492 30.7967ZM15.415 15.3891H10.8831C10.3014 15.3891 9.82611 15.8649 9.82351 16.4497L9.8121 18.9883C9.80595 19.5679 10.2928 20.0619 10.8717 20.0586H15.415C15.9993 20.0586 16.4746 19.5807 16.4746 18.9932V16.4545C16.4746 15.867 15.9993 15.3891 15.415 15.3891ZM15.4492 18.9932C15.4492 19.0121 15.4339 19.0275 15.415 19.0275H10.8716C10.858 19.0293 10.8356 19.0067 10.8374 18.993L10.8488 16.4543C10.8489 16.4355 10.8642 16.4202 10.883 16.4202H15.415C15.4339 16.4202 15.4492 16.4356 15.4492 16.4545V18.9932ZM19.5508 30.7967C19.8339 30.7967 20.0635 30.5658 20.0635 30.2811V29.2258C20.0635 28.9411 19.8339 28.7103 19.5508 28.7103C19.2676 28.7103 19.0381 28.9411 19.0381 29.2258V30.2811C19.0381 30.5658 19.2676 30.7967 19.5508 30.7967ZM24.112 15.3891H19.585C19.0007 15.3891 18.5254 15.867 18.5254 16.4545V18.9932C18.5254 19.5807 19.0007 20.0586 19.585 20.0586H24.1005C24.6821 20.0586 25.1574 19.5828 25.1601 18.998L25.1715 16.4593C25.177 15.8768 24.6896 15.3862 24.112 15.3891ZM24.1347 18.9933C24.1346 19.0121 24.1192 19.0275 24.1005 19.0275H19.585C19.5661 19.0275 19.5508 19.0121 19.5508 18.9932V16.4545C19.5508 16.4356 19.5661 16.4202 19.585 16.4202H24.112C24.1155 16.4202 24.1262 16.4202 24.1362 16.4303C24.1462 16.4404 24.1462 16.4511 24.1462 16.4546L24.1347 18.9933Z" fill="#E5E5E5"/>
</g>
<defs>
<clipPath id="clip0">
<rect width="35" height="35.1955" fill="white" transform="translate(0 0.128494)"/>
</clipPath>
</defs>
</svg>
