<svg width="15" height="8" viewBox="0 0 15 8" fill="none" xmlns="http://www.w3.org/2000/svg">
<path d="M10.9373 0.17262C10.7091 0.401986 10.7099 0.772972 10.9393 1.00125L12.9948 3.04688L0.585937 3.04688C0.262324 3.04688 -1.72941e-07 3.3092 -1.58795e-07 3.63282C-1.4465e-07 3.95643 0.262324 4.21875 0.585937 4.21875L12.9949 4.21875L10.9393 6.26438C10.7099 6.49266 10.709 6.86364 10.9373 7.09301C11.1656 7.3224 11.5366 7.32325 11.766 7.095L14.8276 4.04813C14.8278 4.04795 14.828 4.04775 14.8281 4.04757C15.0569 3.81929 15.0577 3.4471 14.8282 3.21806C14.828 3.21788 14.8278 3.21768 14.8276 3.2175L11.766 0.170628C11.5367 -0.0575943 11.1657 -0.0568037 10.9373 0.17262Z" fill="#E5E5E5"/>
</svg>
