<svg width="35" height="36" viewBox="0 0 35 36" fill="none" xmlns="http://www.w3.org/2000/svg">
<g clip-path="url(#clip0)">
<path d="M13.0452 8.37186H13.2043C14.0656 8.37186 14.7656 7.66795 14.7656 6.80236C14.7656 6.20404 14.4353 5.66675 13.9027 5.39839L12.8368 4.86221C12.6771 4.78247 12.5781 4.62134 12.5781 4.44206C12.5781 4.18359 12.7881 3.97242 13.0452 3.97242H13.2043C13.4619 3.97242 13.6719 4.18359 13.6719 4.44206V4.52235H14.7656V4.44206C14.7656 3.57647 14.0656 2.87256 13.2048 2.87256H13.0457C12.1844 2.87256 11.4844 3.57647 11.4844 4.44206C11.4844 5.04038 11.8147 5.57766 12.3473 5.84603L13.4132 6.38221C13.5729 6.46195 13.6719 6.62308 13.6719 6.80236C13.6719 7.06083 13.4619 7.272 13.2048 7.272H13.0457C12.7881 7.272 12.5781 7.06083 12.5781 6.80236V6.72207H11.4844V6.80236C11.4844 7.66795 12.1844 8.37186 13.0452 8.37186Z" fill="#E5E5E5"/>
<path d="M16.9531 6.17214H17.5C18.4045 6.17214 19.1406 5.43193 19.1406 4.52235C19.1406 3.61276 18.4045 2.87256 17.5 2.87256H15.8594V8.37186H16.9531V6.17214ZM16.9531 3.97242H17.5C17.8019 3.97242 18.0469 4.21879 18.0469 4.52235C18.0469 4.82591 17.8019 5.07228 17.5 5.07228H16.9531V3.97242Z" fill="#E5E5E5"/>
<path d="M20.4909 7.272H22.1654L22.4345 8.4912L23.5025 8.25253L22.3136 2.87256H20.3427L19.1532 8.25253L20.2213 8.4912L20.4909 7.272ZM21.4364 3.97242L21.9221 6.17214H20.7337L21.2193 3.97242H21.4364Z" fill="#E5E5E5"/>
<path d="M33.3594 31.5701V15.6507L34.5176 13.3212L30.963 6.17214H25.7031V2.32263C25.7031 1.41304 24.967 0.672836 24.0625 0.672836H10.9375C10.033 0.672836 9.29686 1.41304 9.29686 2.32263V6.17214H4.03702L0.48233 13.3212L1.64061 15.6507V31.5701C1.00569 31.7978 0.546862 32.4027 0.546862 33.1187V34.7685H34.4531V33.1187C34.4531 32.4027 33.9943 31.7978 33.3594 31.5701ZM15.0172 19.3705C14.5162 20.3356 13.3858 22.003 11.311 22.6986L10.9375 22.8235V23.22C10.9375 23.2557 10.9123 26.3276 9.29686 28.4614V19.3705H15.0172ZM25.7031 28.4597C24.0942 26.3293 24.0625 23.2552 24.0625 23.2194L24.0614 22.8229L23.6884 22.6981C21.6251 22.0063 20.4903 20.3367 19.9855 19.3699H25.7031V28.4597ZM18.7693 19.3705C19.1597 20.2784 20.3722 22.5738 22.983 23.6099C23.0497 24.7493 23.4456 28.0737 25.7037 30.0672V31.0268L24.2829 30.1337C20.5335 27.7772 18.241 23.7831 18.0644 19.3705H18.7693ZM9.29686 30.0672C11.5549 28.0737 11.9503 24.7493 12.0176 23.6099C14.6283 22.5738 15.8408 20.2784 16.2312 19.3705H16.9362C16.759 23.7831 14.467 27.7772 10.7176 30.1337L9.29686 31.0268V30.0672ZM11.2973 31.0664C14.3768 29.1306 16.5462 26.1725 17.5 22.7718C18.4537 26.1725 20.6232 29.1306 23.7026 31.0664L24.3436 31.4689H10.6564L11.2973 31.0664ZM26.7969 19.3705H27.8906V18.2706H7.10936V19.3705H8.20311V31.4689H4.92186V16.0709H6.90045L7.65624 14.5514L8.41202 16.0709H13.463L14.2187 14.5509L14.9745 16.0709H20.0255L20.7812 14.5509L21.537 16.0709H26.588L27.3437 14.5514L28.0995 16.0709H30.0781V31.4689H26.7969V19.3705ZM9.45819 9.6235C9.72178 10.1817 10.2834 10.5716 10.9375 10.5716H14.1203L13.7555 12.7713H8.4153L9.45819 9.6235ZM25.5418 9.6235L26.5847 12.7713H21.2444L20.8797 10.5716H24.0625C24.7165 10.5716 25.2782 10.1817 25.5418 9.6235ZM28.7755 14.971L28.2286 13.8712H33.0214L32.4745 14.971H28.7755ZM26.4589 13.8712L25.912 14.971H22.213L21.6661 13.8712H26.4589ZM19.7712 10.5716L20.1354 12.7713H14.864L15.2283 10.5716H19.7712ZM19.8964 13.8712L19.3495 14.971H15.6505L15.1036 13.8712H19.8964ZM13.3339 13.8712L12.787 14.971H9.08795L8.54108 13.8712H13.3339ZM2.52546 14.971L1.97858 13.8712H6.77139L6.22452 14.971H2.52546ZM3.82811 16.0709V31.4689H2.73436V16.0709H3.82811ZM31.1719 16.0709H32.2656V31.4689H31.1719V16.0709ZM33.0214 12.7713H27.738L25.9147 7.272H30.287L33.0214 12.7713ZM10.3906 2.32263C10.3906 2.01907 10.6356 1.7727 10.9375 1.7727H24.0625C24.3644 1.7727 24.6094 2.01907 24.6094 2.32263V8.92179C24.6094 9.22535 24.3644 9.47172 24.0625 9.47172H10.9375C10.6356 9.47172 10.3906 9.22535 10.3906 8.92179V2.32263ZM4.71295 7.272H9.08522L7.26194 12.7713H1.97858L4.71295 7.272ZM33.3594 33.6686H1.64061V33.1187C1.64061 32.8152 1.88561 32.5688 2.18749 32.5688H32.8125C33.1144 32.5688 33.3594 32.8152 33.3594 33.1187V33.6686Z" fill="#E5E5E5"/>
</g>
<defs>
<clipPath id="clip0">
<rect width="35" height="35.1955" fill="white" transform="translate(0 0.12291)"/>
</clipPath>
</defs>
</svg>
