<svg width="24" height="24" viewBox="0 0 24 24" fill="none" xmlns="http://www.w3.org/2000/svg">
<g clip-path="url(#clip0)">
<path d="M13 2.051V1C13 0.734784 12.8946 0.48043 12.7071 0.292893C12.5196 0.105357 12.2652 0 12 0C11.7348 0 11.4804 0.105357 11.2929 0.292893C11.1053 0.48043 11 0.734784 11 1V2.051C8.98676 2.23149 7.06242 2.9642 5.43898 4.16842C3.81554 5.37263 2.55602 7.00161 1.79918 8.87588C1.04234 10.7501 0.81755 12.797 1.14959 14.7908C1.48162 16.7847 2.3576 18.6482 3.68099 20.176C3.15836 20.4345 2.72162 20.8387 2.42338 21.3397C2.12513 21.8407 1.9781 22.4173 1.99999 23C1.99999 23.2652 2.10535 23.5196 2.29289 23.7071C2.48042 23.8946 2.73478 24 2.99999 24C3.26521 24 3.51956 23.8946 3.7071 23.7071C3.89464 23.5196 3.99999 23.2652 3.99999 23C3.99168 22.6918 4.10234 22.3922 4.30901 22.1633C4.51568 21.9345 4.80251 21.794 5.10999 21.771C5.17878 21.7579 5.24587 21.7371 5.30999 21.709C7.22553 23.1947 9.58083 24.001 12.005 24.001C14.4292 24.001 16.7845 23.1947 18.7 21.709C18.7585 21.736 18.8195 21.7574 18.882 21.773C19.1906 21.794 19.4791 21.9334 19.6874 22.162C19.8957 22.3906 20.0077 22.6908 20 23C20 23.2652 20.1053 23.5196 20.2929 23.7071C20.4804 23.8946 20.7348 24 21 24C21.2652 24 21.5196 23.8946 21.7071 23.7071C21.8946 23.5196 22 23.2652 22 23C22.0219 22.4173 21.8749 21.8407 21.5766 21.3397C21.2784 20.8387 20.8416 20.4345 20.319 20.176C21.6424 18.6482 22.5184 16.7847 22.8504 14.7908C23.1824 12.797 22.9576 10.7501 22.2008 8.87588C21.444 7.00161 20.1844 5.37263 18.561 4.16842C16.9376 2.9642 15.0132 2.23149 13 2.051ZM2.99999 13C2.99999 11.22 3.52783 9.47991 4.51677 7.99987C5.5057 6.51983 6.91131 5.36627 8.55584 4.68508C10.2004 4.0039 12.01 3.82567 13.7558 4.17293C15.5016 4.5202 17.1053 5.37737 18.364 6.63604C19.6226 7.89471 20.4798 9.49836 20.8271 11.2442C21.1743 12.99 20.9961 14.7996 20.3149 16.4442C19.6337 18.0887 18.4802 19.4943 17.0001 20.4832C15.5201 21.4722 13.78 22 12 22C9.61394 21.9971 7.32644 21.0479 5.63925 19.3607C3.95205 17.6735 3.0029 15.3861 2.99999 13Z" fill="#C62026"/>
<path d="M19.215 0.000100327C18.9498 0.000100327 18.6955 0.105457 18.5079 0.292994C18.3204 0.48053 18.215 0.734884 18.215 1.0001C18.215 1.26532 18.3204 1.51967 18.5079 1.70721C18.6955 1.89474 18.9498 2.0001 19.215 2.0001C19.5637 1.97359 19.9142 2.01798 20.2453 2.13058C20.5764 2.24318 20.8812 2.42167 21.1415 2.65528C21.4017 2.88889 21.612 3.17279 21.7595 3.48985C21.9071 3.80691 21.9889 4.15056 22 4.5001C22 4.76532 22.1054 5.01967 22.2929 5.20721C22.4805 5.39474 22.7348 5.5001 23 5.5001C23.2652 5.5001 23.5196 5.39474 23.7071 5.20721C23.8947 5.01967 24 4.76532 24 4.5001C23.9872 3.8886 23.8526 3.28578 23.604 2.72693C23.3555 2.16808 22.998 1.66441 22.5524 1.24538C22.1068 0.826364 21.5822 0.500407 21.0091 0.286584C20.4361 0.072762 19.8262 -0.024632 19.215 0.000100327Z" fill="#C62026"/>
<path d="M2 4.5001C2.01115 4.15056 2.09296 3.80691 2.24052 3.48985C2.38807 3.17279 2.59831 2.88889 2.85855 2.65528C3.11879 2.42167 3.42365 2.24318 3.75474 2.13058C4.08583 2.01798 4.43629 1.97359 4.785 2.0001C5.05022 2.0001 5.30457 1.89474 5.49211 1.70721C5.67964 1.51967 5.785 1.26532 5.785 1.0001C5.785 0.734884 5.67964 0.48053 5.49211 0.292994C5.30457 0.105457 5.05022 0.000100327 4.785 0.000100327C4.17386 -0.024632 3.56393 0.072762 2.99088 0.286584C2.41784 0.500407 1.89319 0.826364 1.44763 1.24538C1.00207 1.66441 0.644547 2.16808 0.395981 2.72693C0.147415 3.28578 0.0127962 3.8886 0 4.5001C0 4.76532 0.105357 5.01967 0.292893 5.20721C0.48043 5.39474 0.734784 5.5001 1 5.5001C1.26522 5.5001 1.51957 5.39474 1.70711 5.20721C1.89464 5.01967 2 4.76532 2 4.5001Z" fill="#C62026"/>
<path d="M13 11.586V7C13 6.73478 12.8946 6.48043 12.7071 6.29289C12.5196 6.10536 12.2652 6 12 6C11.7348 6 11.4804 6.10536 11.2929 6.29289C11.1054 6.48043 11 6.73478 11 7V12C11.0001 12.2652 11.1055 12.5195 11.293 12.707L14.293 15.707C14.4816 15.8892 14.7342 15.99 14.9964 15.9877C15.2586 15.9854 15.5094 15.8802 15.6948 15.6948C15.8802 15.5094 15.9854 15.2586 15.9877 14.9964C15.99 14.7342 15.8892 14.4816 15.707 14.293L13 11.586Z" fill="#C62026"/>
</g>
<defs>
<clipPath id="clip0">
<rect width="24" height="24" fill="white"/>
</clipPath>
</defs>
</svg>
