<svg width="20" height="20" viewBox="0 0 20 20" fill="none" xmlns="http://www.w3.org/2000/svg">
<path d="M5.83333 5.00001H19.1667C19.3877 5.00001 19.5996 4.91221 19.7559 4.75593C19.9122 4.59965 20 4.38769 20 4.16668C20 3.94566 19.9122 3.7337 19.7559 3.57742C19.5996 3.42114 19.3877 3.33334 19.1667 3.33334H5.83333C5.61232 3.33334 5.40036 3.42114 5.24408 3.57742C5.0878 3.7337 5 3.94566 5 4.16668C5 4.38769 5.0878 4.59965 5.24408 4.75593C5.40036 4.91221 5.61232 5.00001 5.83333 5.00001Z" fill="#C62026"/>
<path d="M19.1667 9.16666H5.83333C5.61232 9.16666 5.40036 9.25445 5.24408 9.41073C5.0878 9.56701 5 9.77898 5 9.99999C5 10.221 5.0878 10.433 5.24408 10.5892C5.40036 10.7455 5.61232 10.8333 5.83333 10.8333H19.1667C19.3877 10.8333 19.5996 10.7455 19.7559 10.5892C19.9122 10.433 20 10.221 20 9.99999C20 9.77898 19.9122 9.56701 19.7559 9.41073C19.5996 9.25445 19.3877 9.16666 19.1667 9.16666Z" fill="#C62026"/>
<path d="M19.1667 15H5.83333C5.61232 15 5.40036 15.0878 5.24408 15.2441C5.0878 15.4004 5 15.6123 5 15.8333C5 16.0543 5.0878 16.2663 5.24408 16.4226C5.40036 16.5789 5.61232 16.6667 5.83333 16.6667H19.1667C19.3877 16.6667 19.5996 16.5789 19.7559 16.4226C19.9122 16.2663 20 16.0543 20 15.8333C20 15.6123 19.9122 15.4004 19.7559 15.2441C19.5996 15.0878 19.3877 15 19.1667 15Z" fill="#C62026"/>
<path d="M1.66667 5.83333C2.58714 5.83333 3.33333 5.08714 3.33333 4.16667C3.33333 3.24619 2.58714 2.5 1.66667 2.5C0.746192 2.5 0 3.24619 0 4.16667C0 5.08714 0.746192 5.83333 1.66667 5.83333Z" fill="#C62026"/>
<path d="M1.66667 11.6667C2.58714 11.6667 3.33333 10.9205 3.33333 10C3.33333 9.07954 2.58714 8.33334 1.66667 8.33334C0.746192 8.33334 0 9.07954 0 10C0 10.9205 0.746192 11.6667 1.66667 11.6667Z" fill="#C62026"/>
<path d="M1.66667 17.5C2.58714 17.5 3.33333 16.7538 3.33333 15.8333C3.33333 14.9128 2.58714 14.1667 1.66667 14.1667C0.746192 14.1667 0 14.9128 0 15.8333C0 16.7538 0.746192 17.5 1.66667 17.5Z" fill="#C62026"/>
</svg>
